<svg id="visual" viewBox="0 0 900 450" width="900" height="450" xmlns="http://www.w3.org/2000/svg" xmlns:xlink="http://www.w3.org/1999/xlink" version="1.1"><rect width="900" height="450" fill="#E8E8E8"></rect><g><g transform="translate(568 153)"><path d="M0 -81.9L70.9 -41L70.9 41L0 81.9L-70.9 41L-70.9 -41Z" fill="#ffffff"></path></g><g transform="translate(58 326)"><path d="M0 -78L67.5 -39L67.5 39L0 78L-67.5 39L-67.5 -39Z" fill="#ffffff"></path></g><g transform="translate(675 315)"><path d="M0 -71L61.5 -35.5L61.5 35.5L0 71L-61.5 35.5L-61.5 -35.5Z" fill="#ffffff"></path></g><g transform="translate(295 291)"><path d="M0 -71L61.5 -35.5L61.5 35.5L0 71L-61.5 35.5L-61.5 -35.5Z" fill="#ffffff"></path></g><g transform="translate(483 420)"><path d="M0 -62L53.7 -31L53.7 31L0 62L-53.7 31L-53.7 -31Z" fill="#ffffff"></path></g><g transform="translate(848 18)"><path d="M0 -46L39.8 -23L39.8 23L0 46L-39.8 23L-39.8 -23Z" fill="#ffffff"></path></g><g transform="translate(227 4)"><path d="M0 -40L34.6 -20L34.6 20L0 40L-34.6 20L-34.6 -20Z" fill="#ffffff"></path></g><g transform="translate(175 167)"><path d="M0 -54L46.8 -27L46.8 27L0 54L-46.8 27L-46.8 -27Z" fill="#ffffff"></path></g><g transform="translate(54 35)"><path d="M0 -55L47.6 -27.5L47.6 27.5L0 55L-47.6 27.5L-47.6 -27.5Z" fill="#ffffff"></path></g><g transform="translate(860 262)"><path d="M0 -66L57.2 -33L57.2 33L0 66L-57.2 33L-57.2 -33Z" fill="#ffffff"></path></g><g transform="translate(636 3)"><path d="M0 -48L41.6 -24L41.6 24L0 48L-41.6 24L-41.6 -24Z" fill="#ffffff"></path></g><g transform="translate(826 427)"><path d="M0 -75L65 -37.5L65 37.5L0 75L-65 37.5L-65 -37.5Z" fill="#ffffff"></path></g><g transform="translate(403 31)"><path d="M0 -76L65.8 -38L65.8 38L0 76L-65.8 38L-65.8 -38Z" fill="#ffffff"></path></g><g transform="translate(229 442)"><path d="M0 -50L43.3 -25L43.3 25L0 50L-43.3 25L-43.3 -25Z" fill="#ffffff"></path></g></g></svg>